<?xml version="1.0" encoding="utf-8"?>
<!-- Generator: Adobe Illustrator 27.4.0, SVG Export Plug-In . SVG Version: 6.00 Build 0)  -->
<svg version="1.1" id="Layer_1" xmlns="http://www.w3.org/2000/svg" xmlns:xlink="http://www.w3.org/1999/xlink" x="0px" y="0px"
	 viewBox="0 0 591.4 901.4" style="enable-background:new 0 0 591.4 901.4;" xml:space="preserve">
<style type="text/css">
	.st0{fill:none;stroke:#EF4323;stroke-miterlimit:10;}
	.st1{fill:none;stroke:#EF4323;stroke-linecap:round;stroke-linejoin:round;stroke-miterlimit:10;}
	.st2{fill:none;stroke:#28221A;stroke-miterlimit:10;}
	.st3{fill:none;stroke:#28221A;stroke-linecap:round;stroke-linejoin:round;stroke-miterlimit:10;}
	.st4{fill:none;stroke:#D9D2CA;stroke-miterlimit:10;}
	.st5{fill:none;stroke:#D9D2CA;stroke-linecap:round;stroke-linejoin:round;stroke-miterlimit:10;}
</style>
<g>
	<g>
		<line class="st0" x1="275.5" y1="379.1" x2="281.5" y2="374.6"/>
		<path class="st1" d="M273.1,364.5l-5,3.5"/>
		<path class="st0" d="M342.3,382c4.8-7.6,1.7-13.1,0.2-15.3c-1.4-2.2-4.1-3.2-4.1-3.2l-8-2.7c-1-0.3-33.5-11-36.3-11.9"/>
		<path class="st0" d="M301.6,363.6c0,0,18.9,10.1,24.2,13c0.9,0.5,1.9,0.9,3,1.2l9.7,3c5.8,1.8,11.3,2.8,16.4,6.3
			c1.6,1.1,3.3,2.2,5,3.4c5.6,3.8,11.1,7.5,16.7,11.3c15.3,10.4,30.7,20.7,46,31.1c11.9,8,23.8,16.1,35.7,24.1
			c1.3,0.9,2.7,1.8,4,2.7c5.7,3.9,11.4,7.9,17,11.9c2.3,1.6,29.2,20.8,25,23.6c-0.6,0.4-1.5,1.5-17.5-7.5S338.4,404.7,306.5,382
			c-2-1.1-4-2.2-6-3.4c-1.2-0.7-2.3-1.3-3.5-2c-0.8-0.5-1.9-0.8-2.5-1.6c-0.6-0.8-0.6-2.1-0.6-3.1c0-1,0.3-2,0.7-3
			c0.8-1.9,2.2-3.5,4-4.5C299.3,364.1,300.8,363.2,301.6,363.6z"/>
		<path class="st0" d="M301.3,363.6c-1.3-0.7-2.9-1.6-4.5-2.3c-1.4-0.6-2.8-1-4.2-0.3c-1,0.5-1.9,1.4-2.6,2.3
			c-1.2,1.6-2,3.8-1.8,5.8c0.2,2.1,1.9,3.1,3.5,4.1c0.9,0.6,1.9,1.1,2.8,1.7"/>
		<path class="st1" d="M276,379c-6.9-2.5-7.8-11.3-7.8-11.3c-27.2,20.1-153.5,125.7-153.8,126c-9.1,7.6-18,15.7-26.3,24.3
			c-0.6,0.6-1,1.3-1.1,2.1c0,0.1,0,0.1,0,0.2c0.2,0.5,0.9,0.5,1.5,0.3c12.4-4.7,22.6-13.1,33.2-20.8c20-14.5,40-29.1,60.2-43.4
			c10.1-7.1,20.2-14.3,30.2-21.4c6.9-4.8,13.7-9.7,20.6-14.5l0,0c3.2-2.3,6.1-5.1,8.5-8.3l10.3-13.8c1.5-2.1,3.4-3.9,5.5-5.4
			l18.9-13.8L276,379z"/>
		<path class="st0" d="M281.5,344.7c0,0,6.5-2.7,12.8-0.2"/>
		<path class="st0" d="M294.6,393.8c0,0,8.3-3.7,19.7,0.8"/>
		<line class="st0" x1="330.3" y1="342.5" x2="330.3" y2="360.8"/>
		<polyline class="st0" points="327,337.1 327,342.5 333.5,342.5 333.5,336.8 		"/>
		<ellipse class="st0" cx="333.7" cy="371.1" rx="1.1" ry="2.3"/>
		<ellipse class="st0" cx="320.7" cy="366.8" rx="1.1" ry="2.1"/>
		<ellipse class="st0" cx="308.2" cy="362.5" rx="1.1" ry="2.1"/>
	</g>
	<path class="st0" d="M280.9,335.3c0,0,5.7-3.4,14.6,0"/>
</g>
<path class="st0" d="M314.3,387.3l0,7l8.4,428.9c-22.4,3.5-42.6-0.3-42.6-0.3l6.2-163.5l8.3-277.6c0-0.5-0.2-0.9-0.6-1.1l-1.8-1
	c-0.4-0.2-0.6-0.6-0.6-1.1v-0.7c0-0.7-0.5-1.2-1.2-1.2c-0.4,0-0.8,0-0.8-0.1c-2.1-0.2-4.2-0.7-6.1-1.4c-6.4-2.5-11.6-7.5-9.7-16.6
	c0.9-4.1,3.8-7.9,7.8-9.4v-4.5l-0.5-0.6c-0.3-0.4-0.5-0.9-0.5-1.4c0.2-8.1,1.6-76.4,2.5-112c1.1-44.7,4-101.9,11.6-138.8
	c0,0,3.1-17.8,5.7-15.2c2.6,2.6-2.7,242.6-5.2,266.3c0,0.4-0.2,0.8-0.4,1.1l-0.4,0.5l-0.2,4.4l0.3,0.1c2.1,1,8.6,5,6.1,14.1"/>
</svg>
